<svg width="26" height="28" viewBox="0 0 26 28" fill="none" xmlns="http://www.w3.org/2000/svg">
<path fill-rule="evenodd" clip-rule="evenodd" d="M24.7088 8.23048L23.8669 6.76952C23.1547 5.53334 21.5762 5.10688 20.3384 5.81619C19.7491 6.16331 19.046 6.26179 18.3841 6.08992C17.7221 5.91805 17.1557 5.48994 16.8098 4.9C16.5872 4.52502 16.4676 4.09793 16.4631 3.66191C16.4832 2.96285 16.2195 2.28543 15.732 1.78397C15.2445 1.28251 14.5748 0.999712 13.8755 1H12.1793C11.4942 1 10.8373 1.27301 10.3539 1.75864C9.87064 2.24427 9.60078 2.90248 9.60407 3.58762C9.58376 5.0022 8.43117 6.13824 7.01645 6.1381C6.58043 6.13357 6.15333 6.01398 5.77836 5.79143C4.54048 5.08212 2.96204 5.50858 2.24978 6.74476L1.34598 8.23048C0.634584 9.46512 1.05523 11.0426 2.28693 11.759C3.08755 12.2213 3.58075 13.0755 3.58075 14C3.58075 14.9245 3.08755 15.7787 2.28693 16.241C1.0568 16.9526 0.635689 18.5262 1.34598 19.7571L2.20026 21.2305C2.53398 21.8326 3.09391 22.277 3.75614 22.4652C4.41836 22.6534 5.1283 22.57 5.72883 22.2333C6.3192 21.8889 7.0227 21.7945 7.68299 21.9712C8.34327 22.1479 8.90561 22.581 9.24502 23.1743C9.46757 23.5493 9.58716 23.9764 9.59169 24.4124C9.59169 25.8415 10.7502 27 12.1793 27H13.8755C15.2998 27 16.4563 25.849 16.4631 24.4248C16.4598 23.7375 16.7314 23.0774 17.2174 22.5914C17.7034 22.1054 18.3634 21.8338 19.0507 21.8371C19.4857 21.8488 19.9111 21.9679 20.2888 22.1838C21.5235 22.8952 23.1009 22.4746 23.8174 21.2429L24.7088 19.7571C25.0539 19.1649 25.1486 18.4595 24.972 17.7972C24.7954 17.1349 24.362 16.5704 23.7679 16.2286C23.1738 15.8868 22.7404 15.3222 22.5638 14.6599C22.3872 13.9976 22.4819 13.2923 22.8269 12.7C23.0513 12.3082 23.3761 11.9834 23.7679 11.759C24.9922 11.0429 25.4119 9.47472 24.7088 8.24286V8.23048Z" stroke="#383838" stroke-opacity="0.5" stroke-width="1.9" stroke-linecap="round" stroke-linejoin="round"/>
<path d="M13.0335 17.5658C15.0028 17.5658 16.5992 15.9693 16.5992 14C16.5992 12.0308 15.0028 10.4343 13.0335 10.4343C11.0642 10.4343 9.46777 12.0308 9.46777 14C9.46777 15.9693 11.0642 17.5658 13.0335 17.5658Z" stroke="#383838" stroke-opacity="0.5" stroke-width="1.9" stroke-linecap="round" stroke-linejoin="round"/>
</svg>
