<svg width="24" height="28" viewBox="0 0 24 28" fill="none" xmlns="http://www.w3.org/2000/svg">
<path d="M13.6535 0C14.0139 0 14.2911 0.294 14.2911 0.644V5.152C14.2911 7.714 16.3842 9.814 18.9208 9.828C19.9743 9.828 20.8059 9.842 21.4436 9.842L21.6797 9.84096C22.1058 9.83772 22.6795 9.828 23.1762 9.828C23.5228 9.828 23.8 10.108 23.8 10.458V21.714C23.8 25.186 21.0139 28 17.5762 28H6.54257C2.93861 28 0 25.046 0 21.406V6.314C0 2.842 2.8 0 6.25148 0H13.6535ZM15.1366 18.06H7.59604C7.02772 18.06 6.55644 18.522 6.55644 19.096C6.55644 19.67 7.02772 20.146 7.59604 20.146H15.1366C15.705 20.146 16.1762 19.67 16.1762 19.096C16.1762 18.522 15.705 18.06 15.1366 18.06ZM12.2812 11.06H7.59604C7.02772 11.06 6.55644 11.536 6.55644 12.11C6.55644 12.684 7.02772 13.146 7.59604 13.146H12.2812C12.8495 13.146 13.3208 12.684 13.3208 12.11C13.3208 11.536 12.8495 11.06 12.2812 11.06ZM16.311 1.2684C16.311 0.665 17.0359 0.3654 17.4504 0.8008C18.9488 2.3744 21.5672 5.1254 23.031 6.6626C23.4357 7.0868 23.1391 7.791 22.5555 7.7924C21.4161 7.7966 20.073 7.7924 19.1068 7.7826C17.5737 7.7826 16.311 6.5072 16.311 4.9588V1.2684Z" fill="#383838" fill-opacity="0.5"/>
</svg>
