<svg width="28" height="28" viewBox="0 0 28 28" fill="none" xmlns="http://www.w3.org/2000/svg">
<path d="M8.28796 16.0578C10.2619 16.0578 11.8439 17.6552 11.8439 19.6433V24.4159C11.8439 26.39 10.2619 28 8.28796 28H3.55598C1.59599 28 0 26.39 0 24.4159V19.6433C0 17.6552 1.59599 16.0578 3.55598 16.0578H8.28796ZM24.444 16.0578C26.404 16.0578 28 17.6552 28 19.6433V24.4159C28 26.39 26.404 28 24.444 28H19.712C17.7381 28 16.1561 26.39 16.1561 24.4159V19.6433C16.1561 17.6552 17.7381 16.0578 19.712 16.0578H24.444ZM8.28796 0C10.2619 0 11.8439 1.61002 11.8439 3.58545V8.35812C11.8439 10.3462 10.2619 11.9422 8.28796 11.9422H3.55598C1.59599 11.9422 0 10.3462 0 8.35812V3.58545C0 1.61002 1.59599 0 3.55598 0H8.28796ZM24.444 0C26.404 0 28 1.61002 28 3.58545V8.35812C28 10.3462 26.404 11.9422 24.444 11.9422H19.712C17.7381 11.9422 16.1561 10.3462 16.1561 8.35812V3.58545C16.1561 1.61002 17.7381 0 19.712 0H24.444Z" fill="#383838"/>
</svg>
