<svg width="33" height="33" viewBox="0 0 33 33" fill="none" xmlns="http://www.w3.org/2000/svg">
<path opacity="0.4" d="M23.216 7.03291H19.1692C18.1611 7.03958 17.204 6.59113 16.5651 5.81282L15.2325 3.97048C14.6044 3.18534 13.6473 2.7348 12.6407 2.75039H9.77983C4.64501 2.75039 2.75 5.76402 2.75 10.8884V16.4276C2.74363 17.0368 30.244 17.036 30.2458 16.4276V14.8171C30.2702 9.69271 28.4241 7.03291 23.216 7.03291Z" fill="#383838"/>
<path d="M23.2037 7.03286C24.9978 6.89411 26.7785 7.4342 28.1918 8.54577C28.3546 8.6838 28.5059 8.83477 28.6442 8.99721C29.0841 9.51157 29.4241 10.1032 29.6467 10.7419C30.0848 12.0546 30.2875 13.4341 30.2458 14.817V22.04C30.244 22.6484 30.1991 23.2559 30.1113 23.8579C29.9441 24.9204 29.5703 25.94 29.011 26.8593C28.7539 27.3034 28.4417 27.7133 28.0818 28.0794C26.4527 29.5746 24.2893 30.3529 22.0789 30.239H10.9046C8.69068 30.3521 6.52384 29.5741 4.88951 28.0794C4.53393 27.7126 4.22588 27.3027 3.97258 26.8593C3.41653 25.9407 3.0507 24.9201 2.89671 23.8579C2.7988 23.2569 2.75 22.6489 2.75 22.04V14.817C2.75 14.2138 2.78241 13.611 2.84781 13.0113C2.88448 12.7307 2.97007 12.4623 2.97007 12.1938C3.09417 11.4702 3.32057 10.7677 3.64248 10.1075C4.59609 8.06994 6.55222 7.03286 9.75537 7.03286H23.2037ZM23.5338 19.0996H9.58421C8.95626 19.0996 8.44721 19.6076 8.44721 20.2342C8.44721 20.8609 8.95626 21.3689 9.58421 21.3689H23.4482C23.7519 21.3821 24.0482 21.2734 24.271 21.0671C24.4939 20.8608 24.6246 20.574 24.6341 20.2709C24.6513 20.0044 24.5636 19.7417 24.3896 19.5388C24.1895 19.2661 23.8725 19.1034 23.5338 19.0996Z" fill="#383838" fill-opacity="0.5"/>
</svg>
