<svg width="64" height="64" viewBox="0 0 64 64" fill="none" xmlns="http://www.w3.org/2000/svg">
<g clip-path="url(#clip0_2106_267)">
<path d="M64 32C64 14.3269 49.6731 0 32 0C14.3269 0 0 14.3269 0 32C0 49.6731 14.3269 64 32 64C49.6731 64 64 49.6731 64 32Z" fill="white"/>
<path opacity="0.4" d="M50.8889 20.8889V38.6667H19.4444C15.9555 38.6667 13.1111 41.5112 13.1111 45.0001V20.8889C13.1111 12.0001 15.3333 9.77783 24.2222 9.77783H39.7778C48.6666 9.77783 50.8889 12.0001 50.8889 20.8889Z" fill="#8A938C" stroke="#303030" stroke-width="2.22222"/>
<path d="M50.8889 38.6667V46.4445C50.8889 50.7334 47.4 54.2223 43.1111 54.2223H20.8889C16.6 54.2223 13.1111 50.7334 13.1111 46.4445V45.0001C13.1111 41.5112 15.9555 38.6667 19.4444 38.6667H50.8889Z" fill="#8A938C" stroke="#303030" stroke-width="2.22222"/>
<path d="M40.8889 22.5556H23.1111C22.2 22.5556 21.4445 21.8001 21.4445 20.889C21.4445 19.9778 22.2 19.2223 23.1111 19.2223H40.8889C41.8 19.2223 42.5556 19.9778 42.5556 20.889C42.5556 21.8001 41.8 22.5556 40.8889 22.5556Z" fill="#8A938C" stroke="#303030" stroke-width="2.22222"/>
<path d="M34.2222 30.3333H23.1111C22.2 30.3333 21.4445 29.5778 21.4445 28.6667C21.4445 27.7556 22.2 27 23.1111 27H34.2222C35.1333 27 35.8889 27.7556 35.8889 28.6667C35.8889 29.5778 35.1333 30.3333 34.2222 30.3333Z" fill="#8A938C" stroke="#303030" stroke-width="2.22222"/>
</g>
<defs>
<clipPath id="clip0_2106_267">
<rect width="64" height="64" fill="white"/>
</clipPath>
</defs>
</svg>
