<svg width="19" height="20" viewBox="0 0 19 20" fill="none" xmlns="http://www.w3.org/2000/svg">
<path d="M13.0338 0.342165C13.4439 0.341202 13.7681 0.659749 13.769 1.08448L13.77 1.80845C16.4303 2.01695 18.1877 3.82978 18.1906 6.60982L18.2011 14.7473C18.2049 17.7783 16.3007 19.6432 13.2484 19.6481L5.79266 19.6577C2.75945 19.6616 0.831394 17.7522 0.827579 14.7125L0.817084 6.67064C0.813276 3.87225 2.50867 2.06425 5.16904 1.82003L5.16809 1.09606C5.16714 0.671333 5.4818 0.35182 5.90136 0.35182C6.32092 0.350855 6.63559 0.669402 6.63654 1.09413L6.63749 1.76984L12.3015 1.76212L12.3006 1.08641C12.2996 0.66168 12.6143 0.343133 13.0338 0.342165ZM13.4229 14.0484H13.4133C12.9747 14.059 12.6229 14.4268 12.6324 14.8708C12.6333 15.3148 12.9871 15.6807 13.4257 15.6903C13.8729 15.6894 14.2353 15.3216 14.2343 14.8679C14.2343 14.4142 13.871 14.0484 13.4229 14.0484ZM5.56572 14.0493C5.12709 14.0687 4.78381 14.4364 4.78477 14.8805C4.80479 15.3245 5.16714 15.672 5.60576 15.6517C6.03581 15.6324 6.37813 15.2647 6.35811 14.8206C6.34857 14.3862 5.99481 14.0484 5.56572 14.0493ZM9.4943 14.0445C9.05567 14.0648 8.71335 14.4316 8.71335 14.8756C8.73337 15.3197 9.09572 15.6662 9.53435 15.6469C9.96344 15.6266 10.3067 15.2598 10.2867 14.8148C10.2772 14.3814 9.92339 14.0436 9.4943 14.0445ZM5.56095 10.5743C5.12232 10.5936 4.78 10.9614 4.78095 11.4054C4.80002 11.8494 5.16332 12.1969 5.60195 12.1767C6.03104 12.1574 6.37336 11.7896 6.35334 11.3456C6.3438 10.9112 5.99099 10.5733 5.56095 10.5743ZM9.49048 10.5405C9.05186 10.5598 8.70858 10.9276 8.70953 11.3716C8.7286 11.8157 9.0919 12.1622 9.53053 12.1429C9.95962 12.1226 10.3019 11.7558 10.2829 11.3118C10.2724 10.8774 9.91958 10.5395 9.49048 10.5405ZM13.4191 10.5453C12.9804 10.555 12.6372 10.9121 12.6381 11.3562V11.3668C12.6477 11.8108 13.01 12.1477 13.4496 12.1381C13.8787 12.1274 14.221 11.7597 14.2115 11.3156C14.1914 10.8909 13.8472 10.5444 13.4191 10.5453ZM12.3034 3.24867L6.6394 3.25639L6.64035 4.03731C6.64035 4.45336 6.32664 4.78156 5.90708 4.78156C5.48753 4.78252 5.1719 4.45529 5.1719 4.03924L5.17095 3.29597C3.31155 3.48227 2.28268 4.57498 2.28553 6.66871L2.28649 6.96891L16.7231 6.94961V6.61175C16.6821 4.53637 15.6408 3.44752 13.7719 3.28535L13.7728 4.02863C13.7728 4.4437 13.4496 4.77287 13.0396 4.77287C12.62 4.77383 12.3044 4.44563 12.3044 4.03056L12.3034 3.24867Z" fill="#383838" fill-opacity="0.6"/>
</svg>
