<svg width="31" height="32" viewBox="0 0 31 32" fill="none" xmlns="http://www.w3.org/2000/svg">
<path fill-rule="evenodd" clip-rule="evenodd" d="M14.677 5.33063C9.62418 5.33063 5.52805 9.42676 5.52805 14.4796C5.52805 19.5324 9.62418 23.6285 14.677 23.6285C19.7298 23.6285 23.8259 19.5324 23.8259 14.4796C23.8259 9.42676 19.7298 5.33063 14.677 5.33063ZM3.64517 14.4796C3.64517 8.38688 8.58429 3.44775 14.677 3.44775C20.7698 3.44775 25.7088 8.38688 25.7088 14.4796C25.7088 20.5724 20.7698 25.5114 14.677 25.5114C8.58429 25.5114 3.64517 20.5724 3.64517 14.4796Z" fill="#AFADAD"/>
<path fill-rule="evenodd" clip-rule="evenodd" d="M21.5651 20.5787L28.614 27.6093L27.2843 28.9424L20.2354 21.9118L21.5651 20.5787Z" fill="#AFADAD"/>
</svg>
