<svg width="28" height="43" viewBox="0 0 28 43" fill="none" xmlns="http://www.w3.org/2000/svg">
<path d="M24.27 29.3L23.63 38.48C23.5839 39.321 23.2171 40.1123 22.605 40.6908C21.9929 41.2694 21.1823 41.5912 20.34 41.59H8.08C7.23775 41.5912 6.42709 41.2694 5.81501 40.6908C5.20294 40.1123 4.83608 39.321 4.79 38.48L4 23.6H24.5" stroke="#6F8E01" stroke-width="2" stroke-linecap="round" stroke-linejoin="round"/>
<path d="M11.6499 19.6H3.80988C3.53137 19.5989 3.25571 19.6559 3.00053 19.7675C2.74535 19.8791 2.51629 20.0427 2.32801 20.2479C2.13973 20.4532 1.99639 20.6954 1.90717 20.9593C1.81795 21.2231 1.78481 21.5026 1.80988 21.78C1.87391 22.2889 2.12373 22.7562 2.51135 23.0922C2.89896 23.4281 3.39703 23.6089 3.90988 23.6H24.6099C24.8884 23.6011 25.164 23.5441 25.4192 23.4325C25.6744 23.3209 25.9035 23.1573 26.0917 22.9521C26.28 22.7469 26.4234 22.5046 26.5126 22.2408C26.6018 21.9769 26.6349 21.6974 26.6099 21.42C26.5458 20.9111 26.296 20.4438 25.9084 20.1079C25.5208 19.7719 25.0227 19.5911 24.5099 19.6H15.9999C15.6577 19.6 15.3296 19.4641 15.0877 19.2222C14.8458 18.9802 14.7099 18.6521 14.7099 18.31V10.21C14.7099 10.21 13.9999 1.88 23.8299 1.88C23.8299 1.88 24.2999 7.82 18.5399 9.74" stroke="#6F8E01" stroke-width="2" stroke-linecap="round" stroke-linejoin="round"/>
<path d="M10.4298 12C9.78878 10.8827 8.81519 9.99316 7.64467 9.4554C6.47416 8.91765 5.16504 8.75846 3.89976 9.00001C3.89976 9.00001 2.89976 13.83 10.2498 15.8" stroke="#6F8E01" stroke-width="2" stroke-linecap="round" stroke-linejoin="round"/>
<path d="M24.46 27.6C25.0122 27.6 25.46 27.1523 25.46 26.6C25.46 26.0477 25.0122 25.6 24.46 25.6C23.9077 25.6 23.46 26.0477 23.46 26.6C23.46 27.1523 23.9077 27.6 24.46 27.6Z" fill="black"/>
</svg>
