<svg width="63" height="53" viewBox="0 0 63 53" fill="none" xmlns="http://www.w3.org/2000/svg">
<path d="M62.0156 1.85938H0.984375V43.2031H62.0156V1.85938Z" fill="#3D3935"/>
<path d="M0.984375 1.85938V43.2031H26.5781V51.0781H38.3906V43.2031H62.0156V1.85938H0.984375ZM59.0625 40.25H3.9375V4.8125H59.0625V40.25Z" fill="#A3AEB5"/>
<path d="M38.3906 43.2031H26.5781V46.1562H38.3906V43.2031Z" fill="#788287"/>
<path d="M63 44.1875V0.875H0V44.1875H25.5938V50.0938H23.625V52.0625H41.3438V50.0938H39.375V44.1875H63ZM1.96875 42.2188V2.84375H61.0312V42.2188H1.96875ZM37.4062 50.0938H27.5625V44.1875H37.4062V50.0938Z" fill="#231F20"/>
<path d="M17.7188 12.6875H11.8125V10.7188H17.7188V12.6875ZM13.7812 14.6562V16.625H19.6875V14.6562H13.7812ZM13.7812 28.4375H19.6875V26.4688H13.7812V28.4375ZM11.8125 32.375H17.7188V30.4062H11.8125V32.375Z" fill="#C3CC6A"/>
<path d="M43.3125 18.5938V20.5625H15.75V18.5938H43.3125ZM15.75 24.5H43.3125V22.5312H15.75V24.5Z" fill="#E0A838"/>
<path d="M33.4688 16.625H21.6562V14.6562H33.4688V16.625ZM41.3438 10.7188H19.6875V12.6875H41.3438V10.7188Z" fill="#EAD13F"/>
</svg>
