<svg width="52" height="64" viewBox="0 0 52 64" fill="none" xmlns="http://www.w3.org/2000/svg">
<path d="M5.79443 55.3516C5.79443 55.7125 6.08705 56.005 6.44788 56.005H44.9329C45.2937 56.005 45.5864 55.7125 45.5864 55.3516C45.5864 54.9906 45.2937 54.6981 44.9329 54.6981H6.44788C6.08705 54.6981 5.79443 54.9906 5.79443 55.3516Z" fill="#7D9792" stroke="#7D9792" stroke-width="0.13069"/>
<path d="M44.9329 57.1155H6.44788C6.08705 57.1155 5.79443 57.408 5.79443 57.769C5.79443 58.13 6.08705 58.4224 6.44788 58.4224H44.9329C45.2937 58.4224 45.5864 58.13 45.5864 57.769C45.5864 57.408 45.2937 57.1155 44.9329 57.1155Z" fill="#7D9792" stroke="#7D9792" stroke-width="0.13069"/>
<path d="M51.2885 0H5.95928C2.70536 0 0.0581055 2.64725 0.0581055 5.90104V56.4455C0.0581055 62.0215 3.90313 64 7.19573 64H51.2885C51.6494 64 51.942 63.7075 51.942 63.3466V0.653449C51.942 0.292484 51.6495 0 51.2885 0ZM7.19586 62.6931C6.22222 62.6931 1.36513 62.3919 1.36513 56.4455V5.90104C1.365 3.36788 3.42598 1.3069 5.95928 1.3069H6.54241V42.1821C6.54241 42.5431 6.83503 42.8356 7.19586 42.8356C7.5567 42.8356 7.84931 42.5431 7.84931 42.1821V1.3069H50.6352V49.2109H7.84931V47.2003C7.84931 46.8394 7.5567 46.5469 7.19586 46.5469C6.83503 46.5469 6.54241 46.8394 6.54241 47.2003V49.2109H6.32246C5.32556 49.2109 4.19261 49.6245 3.13232 50.3756C2.83788 50.5843 2.76822 50.992 2.97693 51.2866C3.10436 51.4664 3.30601 51.5624 3.51067 51.5622C3.64123 51.5622 3.77323 51.5232 3.88784 51.442C4.72909 50.8459 5.59374 50.5178 6.32233 50.5178H50.6349V51.8764H47.9179H45.1188H7.42627C4.90696 51.8764 2.85722 53.9262 2.85722 56.4455C2.85722 58.9648 4.90696 61.0145 7.42627 61.0145H47.918C48.2789 61.0145 48.5715 60.722 48.5715 60.3611V53.1833H50.6351V62.6931H7.19586ZM45.1189 53.1833H47.2646V59.7076H7.42627C5.62745 59.7076 4.16412 58.2443 4.16412 56.4455C4.16412 54.6467 5.62745 53.1833 7.42627 53.1833H45.1189Z" fill="#7D9792" stroke="#7D9792" stroke-width="0.13069"/>
<path d="M21.5253 16.2934H22.4368C22.4896 16.2934 22.63 16.4386 22.6509 16.7078L22.6755 17.0259C22.9361 20.4212 23.1842 23.6385 26.8568 24.0067V28.9475H25.9175C25.5566 28.9475 25.264 29.24 25.264 29.601C25.264 29.962 25.5566 30.2544 25.9175 30.2544H29.1215C29.4823 30.2544 29.7749 29.962 29.7749 29.601C29.7749 29.24 29.4823 28.9475 29.1215 28.9475H28.1636V24.0191C31.9858 23.729 32.2353 20.5011 32.4956 17.0903L32.525 16.7078C32.5459 16.4386 32.6863 16.2934 32.7391 16.2934H33.6525C34.0133 16.2934 34.3059 16.0009 34.3059 15.6399C34.3059 15.2789 34.0133 14.9865 33.6525 14.9865H32.7391C31.9459 14.9865 31.2938 15.683 31.2222 16.6066L31.1926 16.9906C30.9164 20.6087 30.656 22.4739 28.1636 22.7092V16.2932H29.1215C29.4823 16.2932 29.7749 16.0007 29.7749 15.6398C29.7749 15.2788 29.4823 14.9863 29.1215 14.9863H27.6026C27.5721 14.982 27.5418 14.9771 27.5102 14.9771C27.4786 14.9771 27.4483 14.982 27.4178 14.9863H25.9175C25.5566 14.9863 25.264 15.2788 25.264 15.6398C25.264 16.0007 25.5566 16.2932 25.9175 16.2932H26.8568V22.6913C24.5111 22.3895 24.2534 20.5068 23.9786 16.9256L23.954 16.6066C23.8824 15.683 23.2301 14.9865 22.4371 14.9865H21.5255C21.1647 14.9865 20.8721 15.2789 20.8721 15.6399C20.8721 16.0009 21.1644 16.2934 21.5253 16.2934Z" fill="#7D9792" stroke="#7D9792" stroke-width="0.13069"/>
<path d="M17.3724 42.4516C17.3724 42.8126 17.665 43.105 18.0258 43.105H30.6617C30.8522 43.105 31.0334 43.0218 31.1575 42.8773C31.2817 42.7326 31.3366 42.541 31.3076 42.3524L30.2329 35.349H38.3423C39.7836 35.349 40.9561 34.1764 40.9561 32.7352V27.5079H43.9008C44.1312 27.5079 44.3447 27.3865 44.4624 27.1886C44.5803 26.9905 44.585 26.745 44.4751 26.5427L41.171 20.4582C40.5898 13.3393 34.6106 7.83551 27.4598 7.83551C27.408 7.83551 27.355 7.8359 27.3031 7.83643C19.8248 7.92046 13.7243 14.0743 13.7042 21.5545C13.6947 25.0591 14.9958 28.3824 17.3722 30.944V42.4516H17.3724ZM27.3177 9.14332C27.365 9.1428 27.4122 9.14241 27.4595 9.14241C33.9751 9.14241 39.4167 14.1919 39.8785 20.6976C39.8864 20.81 39.9224 20.9136 39.9792 21.0024L42.8024 26.201H40.3027C39.9418 26.201 39.6492 26.4934 39.6492 26.8544V32.7352C39.6492 33.4558 39.063 34.0421 38.3423 34.0421H27.461C25.6936 34.0421 23.9864 33.6797 22.3865 32.9647C22.0571 32.817 21.6705 32.9652 21.5233 33.2945C21.3762 33.624 21.5239 34.0106 21.8533 34.1576C23.6219 34.9482 25.5086 35.3489 27.461 35.3489H28.9107L29.9003 41.798H18.6793V30.6838C18.6793 30.6592 18.6747 30.6357 18.6719 30.6117C18.6702 30.5963 18.6701 30.5809 18.6672 30.5655C18.662 30.5367 18.6531 30.5094 18.6442 30.4821C18.64 30.4692 18.6373 30.4561 18.6322 30.4434C18.6207 30.4145 18.6061 30.3877 18.5908 30.3612C18.5849 30.3509 18.5805 30.3402 18.5739 30.3302C18.5538 30.2991 18.5305 30.2705 18.5056 30.2433C18.5019 30.2393 18.4994 30.2346 18.4955 30.2305C18.4938 30.2288 18.4924 30.227 18.4907 30.2253C18.4891 30.2237 18.4878 30.222 18.4862 30.2205C16.2365 27.8811 15.0022 24.8053 15.0109 21.5578C15.0293 14.7885 20.5501 9.21925 27.3177 9.14332Z" fill="#7D9792" stroke="#7D9792" stroke-width="0.13069"/>
</svg>
