<svg width="64" height="64" viewBox="0 0 64 64" fill="none" xmlns="http://www.w3.org/2000/svg">
<path d="M53.3333 0H10.6667C4.77563 0 0 4.77563 0 10.6667V53.3333C0 59.2244 4.77563 64 10.6667 64H53.3333C59.2244 64 64 59.2244 64 53.3333V10.6667C64 4.77563 59.2244 0 53.3333 0Z" fill="white"/>
<path d="M55.4665 24.5334C55.4686 21.8143 54.6705 19.1548 53.1719 16.8861C51.6733 14.6173 49.5402 12.8397 47.0385 11.7745C44.5368 10.7093 41.777 10.4038 39.1029 10.8959C36.4288 11.388 33.9585 12.6559 31.9999 14.5419C29.3766 12.0295 25.8717 10.6475 22.2396 10.6935C18.6076 10.7395 15.1388 12.2099 12.58 14.7879C10.0212 17.366 8.57702 20.8457 8.55829 24.478C8.53956 28.1103 9.9478 31.6048 12.4799 34.2091H12.4692L30.4713 52.6934C30.6696 52.8972 30.9068 53.0592 31.1688 53.1699C31.4308 53.2805 31.7123 53.3375 31.9967 53.3375C32.2811 53.3375 32.5626 53.2805 32.8246 53.1699C33.0865 53.0592 33.3237 52.8972 33.522 52.6934L51.5327 34.2091H51.5199C54.0517 31.6251 55.4687 28.151 55.4665 24.5334Z" fill="#F2C4BB"/>
<path d="M32.0002 54.9334C31.0306 54.9358 30.0988 54.5578 29.405 53.8806C29.3783 53.8571 29.3516 53.8315 29.326 53.8048L11.3218 35.3259C11.2844 35.2875 11.2492 35.248 11.2151 35.2064C8.50475 32.3761 6.97061 28.622 6.92302 24.7035C6.87542 20.7851 8.31794 16.9948 10.9587 14.0995C13.5995 11.2042 17.2415 9.41999 21.1478 9.10786C25.0541 8.79572 28.9331 9.97894 32.0002 12.4182C35.0681 9.98523 38.9449 8.80718 42.8477 9.12192C46.7506 9.43666 50.3886 11.2207 53.0269 14.1138C55.6653 17.0069 57.1075 20.7935 57.0623 24.7087C57.017 28.624 55.4877 32.3762 52.7831 35.2075C52.7499 35.249 52.7143 35.2885 52.6764 35.3259L34.6743 53.8048C34.6487 53.8319 34.622 53.8574 34.5943 53.8816C33.9008 54.5586 32.9693 54.9362 32.0002 54.9334ZM31.5607 51.5136C31.581 51.5318 31.6002 51.551 31.6204 51.5712C31.6695 51.6225 31.7285 51.6632 31.7937 51.6911C31.859 51.719 31.9292 51.7333 32.0002 51.7333C32.0711 51.7333 32.1413 51.719 32.2066 51.6911C32.2719 51.6632 32.3308 51.6225 32.3799 51.5712L32.4396 51.5126L50.2775 33.2054C50.3095 33.1659 50.3426 33.1286 50.3778 33.0923C52.6183 30.7885 53.8645 27.697 53.8481 24.4835C53.8317 21.2699 52.554 18.1913 50.2901 15.9105C48.0263 13.6297 44.9573 12.3291 41.7439 12.2888C38.5306 12.2485 35.4299 13.4717 33.1095 15.695C32.8114 15.9818 32.4138 16.142 32.0002 16.142C31.5865 16.142 31.1889 15.9818 30.8908 15.695C28.5704 13.4717 25.4698 12.2485 22.2564 12.2888C19.0431 12.3291 15.974 13.6297 13.7102 15.9105C11.4463 18.1913 10.1686 21.2699 10.1522 24.4835C10.1358 27.697 11.382 30.7885 13.6226 33.0923C13.6588 33.1286 13.6919 33.167 13.7239 33.2054L31.5607 51.5136Z" fill="#F28080"/>
<path d="M33.5286 54.2934C33.2139 54.2935 32.906 54.2009 32.6437 54.0269C32.3813 53.853 32.1761 53.6055 32.0537 53.3155C31.9312 53.0255 31.8971 52.7058 31.9555 52.3965C32.0139 52.0872 32.1623 51.802 32.382 51.5766L50.2774 33.2053C50.3094 33.1659 50.3425 33.1286 50.3777 33.0923C52.6183 30.8074 53.8714 27.7335 53.8668 24.5333C53.8668 24.109 54.0354 23.702 54.3354 23.402C54.6355 23.1019 55.0424 22.9333 55.4668 22.9333C55.8911 22.9333 56.2981 23.1019 56.5982 23.402C56.8982 23.702 57.0668 24.109 57.0668 24.5333C57.0734 28.5116 55.538 32.3375 52.7831 35.2075C52.7498 35.249 52.7142 35.2885 52.6764 35.3259L34.6742 53.8048C34.5256 53.9587 34.3477 54.0812 34.1509 54.1651C33.9542 54.249 33.7426 54.2926 33.5286 54.2934Z" fill="#BF95BC"/>
<path d="M36.2664 42.1333C36.2238 42.1333 36.18 42.1333 36.1374 42.128C35.7966 42.1003 35.4736 41.9642 35.2158 41.7397C34.958 41.5151 34.7789 41.2138 34.7048 40.88L31.9998 28.7093L29.2947 40.88C29.2206 41.2138 29.0415 41.515 28.7837 41.7396C28.526 41.9641 28.203 42.1002 27.8623 42.1279C27.5215 42.1556 27.1808 42.0734 26.8902 41.8933C26.5996 41.7133 26.3742 41.4449 26.2472 41.1275L23.1112 33.2853L20.531 37.1541C20.3849 37.3733 20.1869 37.553 19.9547 37.6773C19.7225 37.8016 19.4632 37.8667 19.1998 37.8667H8.53311C8.10876 37.8667 7.70179 37.6981 7.40173 37.398C7.10168 37.098 6.93311 36.691 6.93311 36.2667C6.93311 35.8423 7.10168 35.4354 7.40173 35.1353C7.70179 34.8352 8.10876 34.6667 8.53311 34.6667H18.3464L22.1384 28.9792C22.3001 28.7366 22.5251 28.5427 22.7889 28.4187C23.0528 28.2946 23.3455 28.2449 23.6356 28.2751C23.9256 28.3053 24.2018 28.4142 24.4345 28.59C24.6671 28.7658 24.8473 29.0018 24.9555 29.2725L27.3022 35.1296L30.4456 20.9867C30.5249 20.6316 30.7227 20.3141 31.0066 20.0866C31.2905 19.8591 31.6434 19.7351 32.0072 19.7351C32.371 19.7351 32.724 19.8591 33.0079 20.0866C33.2917 20.3141 33.4896 20.6316 33.5688 20.9867L36.7123 35.1296L39.059 29.2725C39.1672 29.0018 39.3474 28.7658 39.58 28.59C39.8127 28.4142 40.0889 28.3053 40.3789 28.2751C40.6689 28.2449 40.9617 28.2946 41.2255 28.4187C41.4894 28.5427 41.7143 28.7366 41.876 28.9792L45.6531 34.6667H55.4664C55.8908 34.6667 56.2978 34.8352 56.5978 35.1353C56.8979 35.4354 57.0664 35.8423 57.0664 36.2667C57.0664 36.691 56.8979 37.098 56.5978 37.398C56.2978 37.6981 55.8908 37.8667 55.4664 37.8667H44.7998C44.5364 37.8667 44.2771 37.8016 44.0448 37.6773C43.8126 37.553 43.6147 37.3733 43.4686 37.1541L40.8883 33.2853L37.7523 41.1275C37.6335 41.4244 37.4285 41.679 37.1636 41.8583C36.8988 42.0376 36.5863 42.1334 36.2664 42.1333Z" fill="#8D9CF4"/>
</svg>
